<?xml version="1.0" encoding="utf-8"?>
<!DOCTYPE svg PUBLIC "-//W3C//DTD SVG 1.1//EN" "http://www.w3.org/Graphics/SVG/1.1/DTD/svg11.dtd" [
	<!ENTITY ns_flows "http://ns.adobe.com/Flows/1.0/">
	<!ENTITY ns_svg "http://www.w3.org/2000/svg">
	<!ENTITY ns_xlink "http://www.w3.org/1999/xlink">
]>
<svg  version="1.1" xmlns="&ns_svg;" xmlns:xlink="&ns_xlink;" xmlns:a="http://ns.adobe.com/AdobeSVGViewerExtensions/3.0/"
	 width="193" height="95" viewBox="0 0 193 95" enable-background="new 0 0 193 95" xml:space="preserve">
<defs>
</defs>
<polygon fill-rule="evenodd" clip-rule="evenodd" fill="#FFFFFF" points="0,0 192.7559,0 192.7559,94.7559 0,94.7559 0,0 "/>
<path fill-rule="evenodd" clip-rule="evenodd" d="M181.3623,28.8169l-0.3867-3.0913l-1.5439-2.7046l-1.9336-2.3193l-2.7041-1.5454
	l-1.5449-0.3853l-2.3203-0.3872l-3.0918-0.3862h-10.4307v21.2539h11.9785l3.0908-0.3867l2.3184-0.7725l1.9336-0.7739l1.9307-1.5454
	l1.5439-1.9321l0.7734-2.3179L181.3623,28.8169L181.3623,28.8169z M110.2607,64.3672H99.4424v-35.936l-31.3022,35.936h-7.7285
	l-0.3853-35.936L15.5869,80.2109H2.8345l56.4185-66.8501h11.5928v32.4595l28.5967-32.4595h10.8184V64.3672L110.2607,64.3672z
	 M146.9717,64.3672h-26.6631V13.3608h5.0244v45.9829h21.6387V64.3672L146.9717,64.3672z M186.3877,28.8169l-0.3857,3.478
	l-1.1611,3.0913l-1.9307,3.0913l-2.3203,2.3193l-2.7051,1.1592l-3.0908,1.1587l-3.4785,0.7729h-13.9092v20.4795h-5.0254V13.3608
	h13.5254l4.252,0.3867l3.8613,0.3853l3.0908,0.7734l2.3213,1.1592l3.0918,2.3184l2.3174,3.0918l1.1611,3.478L186.3877,28.8169
	L186.3877,28.8169z"/>
<polygon fill-rule="evenodd" clip-rule="evenodd" points="60.397,69.4824 60.397,80.0293 66.7261,80.0293 66.7261,78.252 
	62.5366,78.252 62.5366,69.4824 60.397,69.4824 "/>
<path fill-rule="evenodd" clip-rule="evenodd" d="M81.3936,69.3613c-2.6069,0-5.1685,1.5664-5.1685,5.3945
	s2.5615,5.3965,5.1685,5.3965s5.1689-1.5684,5.1689-5.3965S84.0005,69.3613,81.3936,69.3613L81.3936,69.3613z M81.3936,70.8672
	c0.7988,0,2.9082,0.3164,2.9082,3.8887c0,3.5703-2.1094,3.8887-2.9082,3.8887s-2.9082-0.3184-2.9082-3.8887
	C78.4854,71.1836,80.5947,70.8672,81.3936,70.8672L81.3936,70.8672z"/>
<path fill-rule="evenodd" clip-rule="evenodd" d="M96.5586,79.623c0.7988,0.3008,1.7178,0.5293,2.7422,0.5293
	c2.7275,0,4.0234-1.4043,4.0234-3.0762c0-2.1094-1.4316-2.7129-3.1943-3.4648c-0.6631-0.2871-1.4014-0.6641-1.4014-1.5078
	c0-0.4375,0.2715-1.1152,1.582-1.1152c0.7842,0,1.6875,0.2559,2.3057,0.5117l0.2266-1.6875
	c-0.9648-0.3457-2.0195-0.4512-3.0146-0.4512c-2.7422,0-3.3149,1.9141-3.3149,2.9688c0,1.4922,0.8589,2.1543,2.4409,2.9375
	c0.9648,0.4824,2.125,0.7832,2.125,1.8848c0,0.5879-0.542,1.2656-1.6875,1.2656c-0.708,0-1.7632-0.2422-2.6069-0.6328
	L96.5586,79.623L96.5586,79.623z"/>
<path fill-rule="evenodd" clip-rule="evenodd" d="M113.3965,79.623c0.7988,0.3008,1.7178,0.5293,2.7422,0.5293
	c2.7275,0,4.0234-1.4043,4.0234-3.0762c0-2.1094-1.4316-2.7129-3.1943-3.4648c-0.6631-0.2871-1.4014-0.6641-1.4014-1.5078
	c0-0.4375,0.2715-1.1152,1.582-1.1152c0.7832,0,1.6875,0.2559,2.3057,0.5117l0.2256-1.6875
	c-0.9639-0.3457-2.0186-0.4512-3.0137-0.4512c-2.7422,0-3.3145,1.9141-3.3145,2.9688c0,1.4922,0.8584,2.1543,2.4404,2.9375
	c0.9648,0.4824,2.125,0.7832,2.125,1.8848c0,0.5879-0.543,1.2656-1.6875,1.2656c-0.709,0-1.7637-0.2422-2.6074-0.6328
	L113.3965,79.623L113.3965,79.623z"/>
<polygon fill-rule="evenodd" clip-rule="evenodd" points="130.4902,69.4824 130.4902,80.0293 136.8193,80.0293 136.8193,78.252 
	132.6299,78.252 132.6299,69.4824 130.4902,69.4824 "/>
<polygon fill-rule="evenodd" clip-rule="evenodd" points="146.6953,69.4824 146.6953,80.0293 152.9941,80.0293 152.9941,78.1621 
	148.835,78.1621 148.835,75.4648 152.6172,75.4648 152.6172,73.7305 148.835,73.7305 148.835,71.3496 152.9941,71.3496 
	152.9941,69.4824 146.6953,69.4824 "/>
<path fill-rule="evenodd" clip-rule="evenodd" d="M163.0654,79.623c0.7988,0.3008,1.7178,0.5293,2.7422,0.5293
	c2.7275,0,4.0234-1.4043,4.0234-3.0762c0-2.1094-1.4316-2.7129-3.1943-3.4648c-0.6631-0.2871-1.4014-0.6641-1.4014-1.5078
	c0-0.4375,0.2715-1.1152,1.582-1.1152c0.7832,0,1.6875,0.2559,2.3057,0.5117l0.2266-1.6875
	c-0.9648-0.3457-2.0195-0.4512-3.0146-0.4512c-2.7422,0-3.3145,1.9141-3.3145,2.9688c0,1.4922,0.8584,2.1543,2.4404,2.9375
	c0.9648,0.4824,2.125,0.7832,2.125,1.8848c0,0.5879-0.542,1.2656-1.6875,1.2656c-0.708,0-1.7637-0.2422-2.6074-0.6328
	L163.0654,79.623L163.0654,79.623z"/>
<path fill-rule="evenodd" clip-rule="evenodd" d="M179.9033,79.623c0.7979,0.3008,1.7178,0.5293,2.7422,0.5293
	c2.7275,0,4.0234-1.4043,4.0234-3.0762c0-2.1094-1.4316-2.7129-3.1943-3.4648c-0.6631-0.2871-1.4014-0.6641-1.4014-1.5078
	c0-0.4375,0.2705-1.1152,1.582-1.1152c0.7832,0,1.6875,0.2559,2.3057,0.5117l0.2256-1.6875
	c-0.9639-0.3457-2.0186-0.4512-3.0137-0.4512c-2.7422,0-3.3154,1.9141-3.3154,2.9688c0,1.4922,0.8594,2.1543,2.4414,2.9375
	c0.9648,0.4824,2.125,0.7832,2.125,1.8848c0,0.5879-0.543,1.2656-1.6875,1.2656c-0.709,0-1.7637-0.2422-2.6074-0.6328
	L179.9033,79.623L179.9033,79.623z"/>
</svg>
