<?xml version="1.0" standalone="no"?><!DOCTYPE svg PUBLIC "-//W3C//DTD SVG 1.1//EN" "http://www.w3.org/Graphics/SVG/1.1/DTD/svg11.dtd"><svg xmlns="http://www.w3.org/2000/svg" version="1.1" width="991.941" height="647.175" xmlns:xlink="http://www.w3.org/1999/xlink" xlink="http://www.w3.org/1999/xlink" style="position:relative;overflow:hidden;" viewBox="-12 -10.508 991.941 647.175"><defs><filter id="05838a69-188c-4aac-8a9d-f3f0fa79b030" x="-0.5" y="-0.5" width="2" height="2"><feFlood flood-color="#000" flood-opacity="0.6" result="flood"/><feComposite in="flood" in2="SourceAlpha" operator="in" result="mask"/><feGaussianBlur in="mask" stdDeviation="2"/><feOffset dx="1.25" dy="1.25" result="oEffect0"/><feMerge><feMergeNode in="oEffect0"/><feMergeNode in="SourceGraphic"/></feMerge></filter><filter id="af7f1fd3-46eb-4063-8754-e107165e48f0" x="-0.5" y="-0.5" width="2" height="2"><feFlood flood-color="#000" flood-opacity="0.6" result="flood"/><feComposite in="flood" in2="SourceAlpha" operator="in" result="mask"/><feGaussianBlur in="mask" stdDeviation="2"/><feOffset dx="0.05" dy="0.05" result="oEffect0"/><feMerge><feMergeNode in="oEffect0"/><feMergeNode in="SourceGraphic"/></feMerge></filter></defs><g><g width="151" height="0" transform="scale(1,1) translate(7.833,441.667)"><g fill="#545454" stroke="#545454" stroke-opacity="1" transform="scale(1,1) translate(0,0)" filter="url(#af7f1fd3-46eb-4063-8754-e107165e48f0)"><path fill="none" stroke-width="1" stroke-dasharray="none" d="M0,0 L0,0 M0,0 L0,0 M151,0 L151,0 M0,0 L0,0"/><g><g stroke-dasharray="none"><path d="M0,0L-10,0L-10,-10L0,-10z" stroke-width="0" fill="none"/></g></g></g></g><g width="150" height="75" transform="scale(1,1) translate(7.833,404.167)"><g transform="scale(1,1) translate(0,0)" stroke="#545454" fill="#ff0000" fill-opacity="1" stroke-opacity="1" filter="url(#05838a69-188c-4aac-8a9d-f3f0fa79b030)"><path d="M37,0 L28.675,0.949 L25.303,1.897 L22.769,2.846 L20.678,3.795 L18.875,4.744 L17.281,5.692 L15.85,6.641 L14.549,7.59 L13.358,8.538 L12.26,9.487 L11.244,10.436 L10.301,11.385 L9.422,12.333 L8.602,13.282 L7.836,14.231 L7.119,15.179 L6.449,16.128 L5.822,17.077 L5.236,18.026 L4.688,18.974 L4.177,19.923 L3.7,20.872 L3.257,21.821 L2.846,22.769 L2.466,23.718 L2.116,24.667 L1.795,25.615 L1.502,26.564 L1.237,27.513 L0.999,28.462 L0.787,29.41 L0.601,30.359 L0.44,31.308 L0.305,32.256 L0.195,33.205 L0.11,34.154 L0.049,35.103 L0.012,36.051 L0,37 L0,38 L0.012,38.949 L0.049,39.897 L0.11,40.846 L0.195,41.795 L0.305,42.744 L0.44,43.692 L0.601,44.641 L0.787,45.59 L0.999,46.538 L1.237,47.487 L1.502,48.436 L1.795,49.385 L2.116,50.333 L2.466,51.282 L2.846,52.231 L3.257,53.179 L3.7,54.128 L4.177,55.077 L4.688,56.026 L5.236,56.974 L5.822,57.923 L6.449,58.872 L7.119,59.821 L7.836,60.769 L8.602,61.718 L9.422,62.667 L10.301,63.615 L11.244,64.564 L12.26,65.513 L13.358,66.462 L14.549,67.41 L15.85,68.359 L17.281,69.308 L18.875,70.256 L20.678,71.205 L22.769,72.154 L25.303,73.103 L28.675,74.051 L37,75 L113,75 L121.325,74.051 L124.697,73.103 L127.231,72.154 L129.322,71.205 L131.125,70.256 L132.719,69.308 L134.15,68.359 L135.451,67.41 L136.642,66.462 L137.74,65.513 L138.756,64.564 L139.699,63.615 L140.578,62.667 L141.398,61.718 L142.164,60.769 L142.881,59.821 L143.551,58.872 L144.178,57.923 L144.764,56.974 L145.312,56.026 L145.823,55.077 L146.3,54.128 L146.743,53.179 L147.154,52.231 L147.534,51.282 L147.884,50.333 L148.205,49.385 L148.498,48.436 L148.763,47.487 L149.001,46.538 L149.213,45.59 L149.399,44.641 L149.56,43.692 L149.695,42.744 L149.805,41.795 L149.89,40.846 L149.951,39.897 L149.988,38.949 L150,38 L150,37 L149.988,36.051 L149.951,35.103 L149.89,34.154 L149.805,33.205 L149.695,32.256 L149.56,31.308 L149.399,30.359 L149.213,29.41 L149.001,28.462 L148.763,27.513 L148.498,26.564 L148.205,25.615 L147.884,24.667 L147.534,23.718 L147.154,22.769 L146.743,21.821 L146.3,20.872 L145.823,19.923 L145.312,18.974 L144.764,18.026 L144.178,17.077 L143.551,16.128 L142.881,15.179 L142.164,14.231 L141.398,13.282 L140.578,12.333 L139.699,11.385 L138.756,10.436 L137.74,9.487 L136.642,8.538 L135.451,7.59 L134.15,6.641 L132.719,5.692 L131.125,4.744 L129.322,3.795 L127.231,2.846 L124.697,1.897 L121.325,0.949 L113,0 L37,0 z" stroke-width="1" stroke-dasharray="none"/></g><g width="101.358910518" height="48.325901868" transform="scale(1,1) translate(24.321,13.337)"><text width="101.358910518" height="31.249998092651367" transform="scale(1,1) translate(0,8.537951887674318)" xml:space="preserve"><tspan xml:space="preserve" text-rendering="optimizeSpeed" font-size="13.88888888888889" font-weight="bold" font-style="normal" fill="#333333" opacity="1" x="3.23" text-anchor="start" y="12.5" textLength="91.04156494140625" style="font-family: Arial, Helvetica Neue, Helvetica, sans-serif;">Lunch Poems</tspan><tspan xml:space="preserve" text-rendering="optimizeSpeed" font-size="13.88888888888889" font-weight="bold" font-style="normal" fill="#333333" opacity="1" x="15.186" text-anchor="start" y="28.125" textLength="70.98638916015625" style="font-family: Arial, Helvetica Neue, Helvetica, sans-serif;">Homepage</tspan></text></g></g><g width="149.667" height="75.167" transform="scale(1,1) translate(258.5,295.75)"><g transform="scale(1,1) translate(0,0)" stroke="#7F7F7F" fill="#ff0000" fill-opacity="1" stroke-opacity="1" filter="url(#05838a69-188c-4aac-8a9d-f3f0fa79b030)"><path d="M0,65.145 L0,65.145 L0,0 L0,0 L0,0 L149.333,0 L149.333,0 L149.333,0 L149.333,65.145 L149.333,65.145 L149.333,65.145 L148.566,64.785 L147.798,64.433 L147.031,64.087 L146.264,63.749 L145.497,63.419 L144.73,63.096 L143.963,62.78 L143.196,62.471 L142.43,62.17 L141.663,61.876 L140.897,61.59 L140.131,61.31 L139.365,61.039 L138.599,60.774 L137.833,60.517 L137.068,60.267 L136.302,60.025 L135.537,59.79 L134.772,59.562 L134.007,59.342 L133.242,59.129 L132.477,58.923 L131.713,58.725 L130.948,58.534 L130.184,58.35 L129.42,58.174 L128.656,58.005 L127.892,57.843 L127.128,57.689 L126.364,57.542 L125.601,57.402 L124.837,57.27 L124.074,57.145 L123.311,57.028 L122.548,56.917 L121.785,56.815 L121.022,56.719 L120.26,56.631 L119.497,56.55 L118.735,56.477 L117.973,56.41 L117.211,56.352 L116.449,56.3 L115.687,56.256 L114.926,56.219 L114.164,56.19 L113.403,56.168 L112.642,56.153 L111.88,56.146 L111.12,56.146 L110.359,56.153 L109.598,56.168 L108.838,56.19 L108.077,56.219 L107.317,56.256 L106.557,56.3 L105.797,56.352 L105.037,56.41 L104.277,56.477 L103.518,56.55 L102.758,56.631 L101.999,56.719 L101.24,56.815 L100.481,56.917 L99.722,57.028 L98.963,57.145 L98.204,57.27 L97.446,57.402 L96.687,57.542 L95.929,57.689 L95.171,57.843 L94.413,58.005 L93.655,58.174 L92.898,58.35 L92.14,58.534 L91.383,58.725 L90.626,58.923 L89.868,59.129 L89.111,59.342 L88.355,59.562 L87.598,59.79 L86.841,60.025 L86.085,60.267 L85.328,60.517 L84.572,60.774 L83.816,61.039 L83.06,61.31 L82.305,61.59 L81.549,61.876 L80.793,62.17 L80.038,62.471 L79.283,62.78 L78.528,63.096 L77.773,63.419 L77.018,63.749 L76.263,64.087 L75.509,64.433 L74.754,64.785 L74,65.145 L74,65.145 L74,65.145 L73.193,65.538 L72.386,65.924 L71.581,66.301 L70.777,66.67 L69.975,67.031 L69.174,67.384 L68.373,67.73 L67.575,68.067 L66.777,68.396 L65.98,68.717 L65.185,69.03 L64.391,69.335 L63.598,69.632 L62.807,69.921 L62.017,70.202 L61.227,70.475 L60.44,70.739 L59.653,70.996 L58.867,71.245 L58.083,71.486 L57.3,71.719 L56.519,71.943 L55.738,72.16 L54.959,72.369 L54.181,72.57 L53.404,72.762 L52.628,72.947 L51.854,73.123 L51.081,73.292 L50.309,73.452 L49.538,73.605 L48.768,73.749 L48,73.886 L47.233,74.014 L46.467,74.135 L45.702,74.247 L44.939,74.351 L44.177,74.448 L43.416,74.536 L42.656,74.616 L41.898,74.688 L41.14,74.753 L40.384,74.809 L39.63,74.857 L38.876,74.897 L38.124,74.929 L37.373,74.953 L36.623,74.969 L35.874,74.977 L35.126,74.977 L34.38,74.969 L33.635,74.953 L32.891,74.929 L32.149,74.897 L31.407,74.857 L30.667,74.809 L29.928,74.753 L29.191,74.688 L28.454,74.616 L27.719,74.536 L26.985,74.448 L26.252,74.351 L25.521,74.247 L24.79,74.135 L24.061,74.014 L23.333,73.886 L22.607,73.749 L21.881,73.605 L21.157,73.452 L20.434,73.292 L19.712,73.123 L18.992,72.947 L18.272,72.762 L17.554,72.57 L16.837,72.369 L16.122,72.16 L15.407,71.943 L14.694,71.719 L13.982,71.486 L13.272,71.245 L12.562,70.996 L11.854,70.739 L11.147,70.475 L10.441,70.202 L9.736,69.921 L9.033,69.632 L8.331,69.335 L7.63,69.03 L6.93,68.717 L6.231,68.396 L5.534,68.067 L4.838,67.73 L4.143,67.384 L3.45,67.031 L2.757,66.67 L2.066,66.301 L1.376,65.924 L0.687,65.538 L0,65.145 L0,65.145 z" stroke-width="1" stroke-dasharray="none"/></g><g width="144.66666666666666" height="46.2281460134486" transform="scale(1,1) translate(2.5,2.5)"><text width="144.66666666666666" height="15.624999046325684" transform="scale(1,1) translate(0,15.301573483561459)" xml:space="preserve"><tspan xml:space="preserve" text-rendering="optimizeSpeed" font-size="13.88888888888889" font-weight="bold" font-style="normal" fill="#333333" opacity="1" x="27.979" text-anchor="start" y="12.5" textLength="88.70924377441406" style="font-family: Arial, Helvetica Neue, Helvetica, sans-serif;">Full Book TEI</tspan></text></g></g><g width="149.667" height="75.167" transform="scale(1,1) translate(266.833,545.75)"><g transform="scale(1,1) translate(0,0)" stroke="#7F7F7F" fill="#ff0000" fill-opacity="1" stroke-opacity="1" filter="url(#05838a69-188c-4aac-8a9d-f3f0fa79b030)"><path d="M0,65.145 L0,65.145 L0,0 L0,0 L0,0 L149.333,0 L149.333,0 L149.333,0 L149.333,65.145 L149.333,65.145 L149.333,65.145 L148.566,64.785 L147.798,64.433 L147.031,64.087 L146.264,63.749 L145.497,63.419 L144.73,63.096 L143.963,62.78 L143.196,62.471 L142.43,62.17 L141.663,61.876 L140.897,61.59 L140.131,61.31 L139.365,61.039 L138.599,60.774 L137.833,60.517 L137.068,60.267 L136.302,60.025 L135.537,59.79 L134.772,59.562 L134.007,59.342 L133.242,59.129 L132.477,58.923 L131.713,58.725 L130.948,58.534 L130.184,58.35 L129.42,58.174 L128.656,58.005 L127.892,57.843 L127.128,57.689 L126.364,57.542 L125.601,57.402 L124.837,57.27 L124.074,57.145 L123.311,57.028 L122.548,56.917 L121.785,56.815 L121.022,56.719 L120.26,56.631 L119.497,56.55 L118.735,56.477 L117.973,56.41 L117.211,56.352 L116.449,56.3 L115.687,56.256 L114.926,56.219 L114.164,56.19 L113.403,56.168 L112.642,56.153 L111.88,56.146 L111.12,56.146 L110.359,56.153 L109.598,56.168 L108.838,56.19 L108.077,56.219 L107.317,56.256 L106.557,56.3 L105.797,56.352 L105.037,56.41 L104.277,56.477 L103.518,56.55 L102.758,56.631 L101.999,56.719 L101.24,56.815 L100.481,56.917 L99.722,57.028 L98.963,57.145 L98.204,57.27 L97.446,57.402 L96.687,57.542 L95.929,57.689 L95.171,57.843 L94.413,58.005 L93.655,58.174 L92.898,58.35 L92.14,58.534 L91.383,58.725 L90.626,58.923 L89.868,59.129 L89.111,59.342 L88.355,59.562 L87.598,59.79 L86.841,60.025 L86.085,60.267 L85.328,60.517 L84.572,60.774 L83.816,61.039 L83.06,61.31 L82.305,61.59 L81.549,61.876 L80.793,62.17 L80.038,62.471 L79.283,62.78 L78.528,63.096 L77.773,63.419 L77.018,63.749 L76.263,64.087 L75.509,64.433 L74.754,64.785 L74,65.145 L74,65.145 L74,65.145 L73.193,65.538 L72.386,65.924 L71.581,66.301 L70.777,66.67 L69.975,67.031 L69.174,67.384 L68.373,67.73 L67.575,68.067 L66.777,68.396 L65.98,68.717 L65.185,69.03 L64.391,69.335 L63.598,69.632 L62.807,69.921 L62.017,70.202 L61.227,70.475 L60.44,70.739 L59.653,70.996 L58.867,71.245 L58.083,71.486 L57.3,71.719 L56.519,71.943 L55.738,72.16 L54.959,72.369 L54.181,72.57 L53.404,72.762 L52.628,72.947 L51.854,73.123 L51.081,73.292 L50.309,73.452 L49.538,73.605 L48.768,73.749 L48,73.886 L47.233,74.014 L46.467,74.135 L45.702,74.247 L44.939,74.351 L44.177,74.448 L43.416,74.536 L42.656,74.616 L41.898,74.688 L41.14,74.753 L40.384,74.809 L39.63,74.857 L38.876,74.897 L38.124,74.929 L37.373,74.953 L36.623,74.969 L35.874,74.977 L35.126,74.977 L34.38,74.969 L33.635,74.953 L32.891,74.929 L32.149,74.897 L31.407,74.857 L30.667,74.809 L29.928,74.753 L29.191,74.688 L28.454,74.616 L27.719,74.536 L26.985,74.448 L26.252,74.351 L25.521,74.247 L24.79,74.135 L24.061,74.014 L23.333,73.886 L22.607,73.749 L21.881,73.605 L21.157,73.452 L20.434,73.292 L19.712,73.123 L18.992,72.947 L18.272,72.762 L17.554,72.57 L16.837,72.369 L16.122,72.16 L15.407,71.943 L14.694,71.719 L13.982,71.486 L13.272,71.245 L12.562,70.996 L11.854,70.739 L11.147,70.475 L10.441,70.202 L9.736,69.921 L9.033,69.632 L8.331,69.335 L7.63,69.03 L6.93,68.717 L6.231,68.396 L5.534,68.067 L4.838,67.73 L4.143,67.384 L3.45,67.031 L2.757,66.67 L2.066,66.301 L1.376,65.924 L0.687,65.538 L0,65.145 L0,65.145 z" stroke-width="1" stroke-dasharray="none"/></g><g width="144.66666666666666" height="46.2281460134486" transform="scale(1,1) translate(2.5,2.5)"><text width="144.66666666666666" height="15.624999046325684" transform="scale(1,1) translate(0,15.301573483561459)" xml:space="preserve"><tspan xml:space="preserve" text-rendering="optimizeSpeed" font-size="13.88888888888889" font-weight="bold" font-style="normal" fill="#333333" opacity="1" x="6.368" text-anchor="start" y="12.5" textLength="131.9315948486328" style="font-family: Arial, Helvetica Neue, Helvetica, sans-serif;">Individual Poem TEI</tspan></text></g></g><g width="116.5" height="79.25" transform="scale(1,1) translate(75.083,2.042)"><g transform="scale(1,1) translate(0,0)" stroke="#7F7F7F" fill="#ffc000" fill-opacity="1" stroke-opacity="1" filter="url(#05838a69-188c-4aac-8a9d-f3f0fa79b030)"><path d="M0,68.684 L0,68.684 L0,0 L0,0 L0,0 L116.241,0 L116.241,0 L116.241,0 L116.241,68.684 L116.241,68.684 L116.241,68.684 L115.643,68.304 L115.046,67.933 L114.448,67.569 L113.851,67.212 L113.254,66.864 L112.657,66.523 L112.06,66.19 L111.463,65.865 L110.867,65.547 L110.27,65.237 L109.674,64.935 L109.077,64.641 L108.481,64.354 L107.885,64.076 L107.289,63.804 L106.693,63.541 L106.097,63.286 L105.502,63.038 L104.906,62.798 L104.311,62.565 L103.715,62.341 L103.12,62.124 L102.525,61.915 L101.93,61.713 L101.335,61.52 L100.74,61.334 L100.145,61.156 L99.55,60.985 L98.956,60.823 L98.361,60.668 L97.767,60.521 L97.173,60.381 L96.579,60.249 L95.985,60.125 L95.391,60.009 L94.797,59.901 L94.203,59.8 L93.61,59.707 L93.016,59.622 L92.423,59.545 L91.83,59.475 L91.237,59.413 L90.643,59.359 L90.051,59.312 L89.458,59.274 L88.865,59.243 L88.272,59.219 L87.68,59.204 L87.087,59.196 L86.495,59.196 L85.903,59.204 L85.311,59.219 L84.719,59.243 L84.127,59.274 L83.535,59.312 L82.943,59.359 L82.352,59.413 L81.76,59.475 L81.169,59.545 L80.578,59.622 L79.987,59.707 L79.396,59.8 L78.805,59.901 L78.214,60.009 L77.623,60.125 L77.032,60.249 L76.442,60.381 L75.851,60.521 L75.261,60.668 L74.671,60.823 L74.081,60.985 L73.491,61.156 L72.901,61.334 L72.311,61.52 L71.722,61.713 L71.132,61.915 L70.543,62.124 L69.953,62.341 L69.364,62.565 L68.775,62.798 L68.186,63.038 L67.597,63.286 L67.008,63.541 L66.419,63.804 L65.831,64.076 L65.242,64.354 L64.654,64.641 L64.066,64.935 L63.477,65.237 L62.889,65.547 L62.301,65.865 L61.713,66.19 L61.126,66.523 L60.538,66.864 L59.95,67.212 L59.363,67.569 L58.776,67.933 L58.188,68.304 L57.601,68.684 L57.601,68.684 L57.601,68.684 L56.973,69.099 L56.345,69.505 L55.719,69.903 L55.093,70.292 L54.468,70.673 L53.844,71.045 L53.222,71.409 L52.6,71.764 L51.979,72.111 L51.359,72.45 L50.74,72.78 L50.122,73.101 L49.505,73.415 L48.889,73.719 L48.273,74.015 L47.659,74.303 L47.046,74.582 L46.434,74.853 L45.822,75.115 L45.212,75.369 L44.602,75.615 L43.994,75.852 L43.386,76.08 L42.78,76.3 L42.174,76.512 L41.569,76.715 L40.966,76.909 L40.363,77.096 L39.761,77.273 L39.16,77.443 L38.56,77.603 L37.961,77.756 L37.363,77.9 L36.766,78.035 L36.17,78.162 L35.575,78.28 L34.98,78.39 L34.387,78.492 L33.795,78.585 L33.203,78.67 L32.613,78.746 L32.024,78.814 L31.435,78.873 L30.848,78.924 L30.261,78.966 L29.675,79 L29.091,79.025 L28.507,79.042 L27.924,79.05 L27.342,79.05 L26.761,79.042 L26.181,79.025 L25.602,79 L25.024,78.966 L24.447,78.924 L23.871,78.873 L23.296,78.814 L22.722,78.746 L22.149,78.67 L21.576,78.585 L21.005,78.492 L20.435,78.39 L19.865,78.28 L19.297,78.162 L18.729,78.035 L18.163,77.9 L17.597,77.756 L17.032,77.603 L16.469,77.443 L15.906,77.273 L15.344,77.096 L14.783,76.909 L14.223,76.715 L13.664,76.512 L13.106,76.3 L12.549,76.08 L11.993,75.852 L11.438,75.615 L10.884,75.369 L10.33,75.115 L9.778,74.853 L9.227,74.582 L8.676,74.303 L8.127,74.015 L7.579,73.719 L7.031,73.415 L6.484,73.101 L5.939,72.78 L5.394,72.45 L4.851,72.111 L4.308,71.764 L3.766,71.409 L3.225,71.045 L2.685,70.673 L2.146,70.292 L1.608,69.903 L1.071,69.505 L0.535,69.099 L0,68.684 L0,68.684 z" stroke-width="1" stroke-dasharray="none"/></g><g width="111.4999986713131" height="48.99351585014409" transform="scale(1,1) translate(2.5,2.5)"><text width="111.4999986713131" height="15.624999046325684" transform="scale(1,1) translate(0,16.684258401909204)" xml:space="preserve"><tspan xml:space="preserve" text-rendering="optimizeSpeed" font-size="13.88888888888889" font-weight="bold" font-style="normal" fill="#333333" opacity="1" x="36.461" text-anchor="start" y="12.5" textLength="38.578094482421875" style="font-family: Arial, Helvetica Neue, Helvetica, sans-serif;">EPUB</tspan></text></g></g><g width="100.996" height="108.333" transform="scale(1,1) translate(157.833,333.333)"><g transform="scale(1,1) translate(0,0)" fill="#545454" stroke="#545454" stroke-opacity="1" filter="url(#af7f1fd3-46eb-4063-8754-e107165e48f0)"><path d="M 0 108.333 L 94.177 7.314" fill="none" stroke-width="1" stroke-dasharray="none"/><g><g stroke-dasharray="none"><path d="M90.52,3.905L100.996,0L97.834,10.724z" stroke="none" fill-opacity="1"/></g></g></g></g><g width="150" height="75" transform="scale(1,1) translate(258.333,62.5)"><g stroke="#7F7F7F" opacity="1" stroke-width="1" stroke-dasharray="none" width="150" height="75" transform="scale(1,1) translate(0,0)" fill="#b7dde8" fill-opacity="1" stroke-opacity="1" filter="url(#05838a69-188c-4aac-8a9d-f3f0fa79b030)"><rect width="150" height="75"/></g><g width="145" height="70" transform="scale(1,1) translate(2.5,2.5)"><text width="145" height="15.624999046325684" transform="scale(1,1) translate(0,27.187500476837158)" xml:space="preserve"><tspan xml:space="preserve" text-rendering="optimizeSpeed" font-size="13.88888888888889" font-weight="bold" font-style="normal" fill="#333333" opacity="1" x="56.042" text-anchor="start" y="12.5" textLength="32.91679763793945" style="font-family: Arial, Helvetica Neue, Helvetica, sans-serif;">XSLT</tspan></text></g></g><g width="150" height="75" transform="scale(1,1) translate(141.667,162.5)"><g transform="scale(1,1) translate(0,0)" stroke="#7F7F7F" fill="#b7dde8" fill-opacity="1" stroke-opacity="1" filter="url(#05838a69-188c-4aac-8a9d-f3f0fa79b030)"><path d="M0,0 L150,0 L130,75 L20,75 L0,0 z" stroke-width="1" stroke-dasharray="none"/></g><g width="109.87229862475442" height="61.2770137524558" transform="scale(1,1) translate(20.064,2.5)"><text width="109.87229862475442" height="31.249998092651367" transform="scale(1,1) translate(0,15.013507829902217)" xml:space="preserve"><tspan xml:space="preserve" text-rendering="optimizeSpeed" font-size="13.88888888888889" font-weight="bold" font-style="normal" fill="#333333" opacity="1" x="29.091" text-anchor="start" y="12.5" textLength="47.83275604248047" style="font-family: Arial, Helvetica Neue, Helvetica, sans-serif;">Manual</tspan><tspan xml:space="preserve" text-rendering="optimizeSpeed" font-size="13.88888888888889" font-weight="bold" font-style="normal" fill="#333333" opacity="1" x="15.972" text-anchor="start" y="28.125" textLength="77.9291000366211" style="font-family: Arial, Helvetica Neue, Helvetica, sans-serif;">Corrections</tspan></text></g></g><g width="109.329" height="141.667" transform="scale(1,1) translate(157.833,441.667)"><g transform="scale(1,1) translate(0,0)" fill="#545454" stroke="#545454" stroke-opacity="1" filter="url(#af7f1fd3-46eb-4063-8754-e107165e48f0)"><path d="M 0 0 L 103.219 133.75" fill="none" stroke-width="1" stroke-dasharray="none"/><g><g stroke-dasharray="none"><path d="M107.178,130.696L109.329,141.667L99.261,136.805z" stroke="none" fill-opacity="1"/></g></g></g></g><g width="0" height="76" transform="scale(1,1) translate(333.333,403.667)"><g fill="#545454" stroke="#545454" stroke-opacity="1" transform="scale(1,1) translate(0,0)" filter="url(#af7f1fd3-46eb-4063-8754-e107165e48f0)"><path fill="none" stroke-width="1" stroke-dasharray="none" d="M0,0 L0,0 M0,0 L0,0 M0,76 L0,76 M0,0 L0,0"/><g><g stroke-dasharray="none"><path d="M0,0L-10,0L-10,-10L0,-10z" stroke-width="0" fill="none"/></g></g></g></g><g width="150" height="75" transform="scale(1,1) translate(258.333,403.667)"><g stroke="#7F7F7F" opacity="1" stroke-width="1" stroke-dasharray="none" width="150" height="75" transform="scale(1,1) translate(0,0)" fill="#b7dde8" fill-opacity="1" stroke-opacity="1" filter="url(#05838a69-188c-4aac-8a9d-f3f0fa79b030)"><rect width="150" height="75"/></g><g width="145" height="70" transform="scale(1,1) translate(2.5,2.5)"><text width="145" height="15.624999046325684" transform="scale(1,1) translate(0,27.187500476837158)" xml:space="preserve"><tspan xml:space="preserve" text-rendering="optimizeSpeed" font-size="13.88888888888889" font-weight="bold" font-style="normal" fill="#333333" opacity="1" x="56.042" text-anchor="start" y="12.5" textLength="32.91679763793945" style="font-family: Arial, Helvetica Neue, Helvetica, sans-serif;">XSLT</tspan></text></g></g><g width="0.334" height="43.609" transform="scale(1,1) translate(332.999,360.058)"><g transform="scale(1,1) translate(0,0)" fill="#545454" stroke="#545454" stroke-opacity="1" filter="url(#af7f1fd3-46eb-4063-8754-e107165e48f0)"><path d="M 0 0 L 0.257 33.609" fill="none" stroke-width="1" stroke-dasharray="none"/><g><g stroke-dasharray="none"><path d="M5.257,33.571L0.334,43.609L-4.742,33.648z" stroke="none" fill-opacity="1"/></g></g></g></g><g width="7.999" height="67.083" transform="scale(1,1) translate(333.333,478.667)"><g transform="scale(1,1) translate(0,0)" fill="#545454" stroke="#545454" stroke-opacity="1" filter="url(#af7f1fd3-46eb-4063-8754-e107165e48f0)"><path d="M 0 0 L 6.815 57.153" fill="none" stroke-width="1" stroke-dasharray="none"/><g><g stroke-dasharray="none"><path d="M11.78,56.561L7.999,67.083L1.85,57.745z" stroke="none" fill-opacity="1"/></g></g></g></g><g width="150" height="75" transform="scale(1,1) translate(483.333,295.833)"><g stroke="#7F7F7F" opacity="1" stroke-width="1" stroke-dasharray="none" width="150" height="75" transform="scale(1,1) translate(0,0)" fill="#ff0000" fill-opacity="1" stroke-opacity="1" filter="url(#05838a69-188c-4aac-8a9d-f3f0fa79b030)"><rect width="150" height="75"/></g><g width="145" height="70" transform="scale(1,1) translate(2.5,2.5)"><text width="145" height="15.624999046325684" transform="scale(1,1) translate(0,27.187500476837158)" xml:space="preserve"><tspan xml:space="preserve" text-rendering="optimizeSpeed" font-size="13.88888888888889" font-weight="bold" font-style="normal" fill="#333333" opacity="1" x="0.11" text-anchor="start" y="12.5" textLength="144.77963256835938" style="font-family: Arial, Helvetica Neue, Helvetica, sans-serif;">TEI Boilerplate (XSLT)</tspan></text></g></g><g width="150" height="75" transform="scale(1,1) translate(375,162.5)"><g transform="scale(1,1) translate(0,0)" stroke="#7F7F7F" fill="#B7DDE8" fill-opacity="1" stroke-opacity="1" filter="url(#05838a69-188c-4aac-8a9d-f3f0fa79b030)"><path d="M0,0 L150,0 L130,75 L20,75 L0,0 z" stroke-width="1" stroke-dasharray="none"/></g><g width="109.87229862475442" height="61.2770137524558" transform="scale(1,1) translate(20.064,2.5)"><text width="109.87229862475442" height="15.624999046325684" transform="scale(1,1) translate(0,22.82600735306506)" xml:space="preserve"><tspan xml:space="preserve" text-rendering="optimizeSpeed" font-size="13.88888888888889" font-weight="bold" font-style="normal" fill="#333333" opacity="1" x="12.771" text-anchor="start" y="12.5" textLength="84.3293685913086" style="font-family: Arial, Helvetica Neue, Helvetica, sans-serif;"> Annotations</tspan></text></g></g><g width="116.667" height="25" transform="scale(1,1) translate(216.667,137.5)"><g transform="scale(1,1) translate(0,0)" fill="#545454" stroke="#545454" stroke-opacity="1" filter="url(#af7f1fd3-46eb-4063-8754-e107165e48f0)"><path d="M 116.667 0 L 9.778 22.905" fill="none" stroke-width="1" stroke-dasharray="none"/><g><g stroke-dasharray="none"><path d="M10.826,27.794L0,25L8.73,18.016z" stroke="none" fill-opacity="1"/></g></g></g></g><g width="116.667" height="25" transform="scale(1,1) translate(333.333,137.5)"><g transform="scale(1,1) translate(0,0)" fill="#545454" stroke="#545454" stroke-opacity="1" filter="url(#af7f1fd3-46eb-4063-8754-e107165e48f0)"><path d="M 0 0 L 106.889 22.905" fill="none" stroke-width="1" stroke-dasharray="none"/><g><g stroke-dasharray="none"><path d="M107.937,18.016L116.667,25L105.841,27.794z" stroke="none" fill-opacity="1"/></g></g></g></g><g width="116.332" height="58.25" transform="scale(1,1) translate(216.667,237.5)"><g transform="scale(1,1) translate(0,0)" fill="#545454" stroke="#545454" stroke-opacity="1" filter="url(#af7f1fd3-46eb-4063-8754-e107165e48f0)"><path d="M 0 0 L 107.39 53.773" fill="none" stroke-width="1" stroke-dasharray="none"/><g><g stroke-dasharray="none"><path d="M109.629,49.302L116.332,58.25L105.152,58.244z" stroke="none" fill-opacity="1"/></g></g></g></g><g width="125" height="54.245" transform="scale(1,1) translate(325,237.5)"><g transform="scale(1,1) translate(0,0)" fill="#545454" stroke="#545454" stroke-opacity="1" filter="url(#af7f1fd3-46eb-4063-8754-e107165e48f0)"><path d="M 125 0 L 9.173 50.264" fill="none" stroke-width="1" stroke-dasharray="none"/><g><g stroke-dasharray="none"><path d="M11.164,54.851L0,54.245L7.183,45.677z" stroke="none" fill-opacity="1"/></g></g></g></g><g width="197.5" height="95.799" transform="scale(1,1) translate(726.25,285.434)"><g width="197.5" height="95.799" filter="url(#05838a69-188c-4aac-8a9d-f3f0fa79b030)"><g transform="scale(1.3715277965115413,1.3793139108216719) translate(0,0)"><g><g width="134.833" height="61.167" transform="scale(1,1) translate(8.667,0.5)"><g transform="scale(1,1) translate(0,0)" stroke="#000000" fill="#ff0000" fill-opacity="1" stroke-opacity="1"><path d="M0,53 L0,0 L134.833,0 L134.833,53 L134.135,52.7 L133.436,52.406 L132.738,52.118 L132.04,51.837 L131.342,51.561 L130.644,51.292 L129.946,51.029 L129.248,50.772 L128.551,50.521 L127.854,50.276 L127.156,50.037 L126.459,49.804 L125.762,49.578 L125.066,49.358 L124.369,49.143 L123.672,48.935 L122.976,48.733 L122.28,48.537 L121.583,48.347 L120.887,48.164 L120.192,47.986 L119.496,47.815 L118.8,47.65 L118.105,47.49 L117.41,47.337 L116.714,47.19 L116.019,47.05 L115.324,46.915 L114.63,46.786 L113.935,46.664 L113.24,46.548 L112.546,46.437 L111.852,46.333 L111.158,46.235 L110.464,46.144 L109.77,46.058 L109.076,45.978 L108.383,45.905 L107.689,45.837 L106.996,45.776 L106.303,45.721 L105.61,45.672 L104.917,45.629 L104.224,45.593 L103.532,45.562 L102.839,45.537 L102.147,45.519 L101.455,45.507 L100.763,45.501 L100.071,45.501 L99.379,45.507 L98.687,45.519 L97.996,45.537 L97.304,45.562 L96.613,45.593 L95.922,45.629 L95.231,45.672 L94.54,45.721 L93.85,45.776 L93.159,45.837 L92.469,45.905 L91.778,45.978 L91.088,46.058 L90.398,46.144 L89.708,46.235 L89.019,46.333 L88.329,46.437 L87.639,46.548 L86.95,46.664 L86.261,46.786 L85.572,46.915 L84.883,47.05 L84.194,47.19 L83.505,47.337 L82.817,47.49 L82.129,47.65 L81.44,47.815 L80.752,47.986 L80.064,48.164 L79.376,48.347 L78.689,48.537 L78.001,48.733 L77.314,48.935 L76.626,49.143 L75.939,49.358 L75.252,49.578 L74.565,49.804 L73.879,50.037 L73.192,50.276 L72.506,50.521 L71.819,50.772 L71.133,51.029 L70.447,51.292 L69.761,51.561 L69.075,51.837 L68.39,52.118 L67.704,52.406 L67.019,52.7 L66.333,53 L66.333,53 L65.603,53.333 L64.875,53.66 L64.147,53.979 L63.421,54.292 L62.695,54.598 L61.972,54.898 L61.249,55.19 L60.527,55.476 L59.807,55.755 L59.088,56.027 L58.37,56.292 L57.654,56.551 L56.938,56.802 L56.224,57.047 L55.511,57.285 L54.8,57.517 L54.089,57.741 L53.38,57.959 L52.672,58.17 L51.965,58.374 L51.26,58.571 L50.556,58.761 L49.852,58.945 L49.151,59.122 L48.45,59.292 L47.751,59.455 L47.052,59.612 L46.355,59.761 L45.66,59.904 L44.965,60.04 L44.272,60.169 L43.58,60.292 L42.889,60.407 L42.199,60.516 L41.511,60.618 L40.824,60.713 L40.138,60.802 L39.453,60.884 L38.77,60.958 L38.087,61.026 L37.406,61.088 L36.726,61.142 L36.048,61.19 L35.37,61.23 L34.694,61.264 L34.019,61.292 L33.346,61.312 L32.673,61.326 L32.002,61.332 L31.332,61.332 L30.663,61.326 L29.995,61.312 L29.329,61.292 L28.664,61.264 L28,61.23 L27.337,61.19 L26.676,61.142 L26.016,61.088 L25.357,61.026 L24.699,60.958 L24.042,60.884 L23.387,60.802 L22.733,60.713 L22.08,60.618 L21.428,60.516 L20.778,60.407 L20.129,60.292 L19.481,60.169 L18.834,60.04 L18.188,59.904 L17.544,59.761 L16.901,59.612 L16.259,59.455 L15.618,59.292 L14.979,59.122 L14.341,58.945 L13.704,58.761 L13.068,58.571 L12.433,58.374 L11.8,58.17 L11.168,57.959 L10.537,57.741 L9.908,57.517 L9.279,57.285 L8.652,57.047 L8.026,56.802 L7.401,56.551 L6.778,56.292 L6.155,56.027 L5.534,55.755 L4.915,55.476 L4.296,55.19 L3.679,54.898 L3.062,54.598 L2.448,54.292 L1.834,53.979 L1.221,53.66 L0.61,53.333 L0,53 z" stroke-width="1" stroke-dasharray="none"/></g></g><g width="135.167" height="61.333" transform="scale(1,1) translate(4.5,4)"><g transform="scale(1,1) translate(0,0)" stroke="#000000" fill="#ff0000" fill-opacity="1" stroke-opacity="1"><path d="M0,53 L0,0 L135.167,0 L135.167,53 L134.47,52.7 L133.773,52.406 L133.076,52.118 L132.38,51.837 L131.684,51.561 L130.987,51.292 L130.291,51.029 L129.595,50.772 L128.899,50.521 L128.204,50.276 L127.508,50.037 L126.813,49.804 L126.118,49.578 L125.422,49.358 L124.727,49.143 L124.033,48.935 L123.338,48.733 L122.643,48.537 L121.949,48.347 L121.254,48.164 L120.56,47.986 L119.866,47.815 L119.172,47.65 L118.479,47.49 L117.785,47.337 L117.091,47.19 L116.398,47.05 L115.705,46.915 L115.012,46.786 L114.319,46.664 L113.626,46.548 L112.933,46.437 L112.241,46.333 L111.548,46.235 L110.856,46.144 L110.164,46.058 L109.472,45.978 L108.78,45.905 L108.088,45.837 L107.397,45.776 L106.705,45.721 L106.014,45.672 L105.323,45.629 L104.632,45.593 L103.941,45.562 L103.25,45.537 L102.559,45.519 L101.869,45.507 L101.178,45.501 L100.488,45.501 L99.798,45.507 L99.108,45.519 L98.418,45.537 L97.729,45.562 L97.039,45.593 L96.35,45.629 L95.66,45.672 L94.971,45.721 L94.282,45.776 L93.593,45.837 L92.905,45.905 L92.216,45.978 L91.528,46.058 L90.839,46.144 L90.151,46.235 L89.463,46.333 L88.775,46.437 L88.087,46.548 L87.4,46.664 L86.712,46.786 L86.025,46.915 L85.337,47.05 L84.65,47.19 L83.963,47.337 L83.277,47.49 L82.59,47.65 L81.903,47.815 L81.217,47.986 L80.531,48.164 L79.844,48.347 L79.158,48.537 L78.473,48.733 L77.787,48.935 L77.101,49.143 L76.416,49.358 L75.73,49.578 L75.045,49.804 L74.36,50.037 L73.675,50.276 L72.99,50.521 L72.306,50.772 L71.621,51.029 L70.937,51.292 L70.253,51.561 L69.568,51.837 L68.884,52.118 L68.201,52.406 L67.517,52.7 L66.833,53 L66.833,53 L66.092,53.34 L65.351,53.673 L64.612,53.999 L63.875,54.318 L63.138,54.63 L62.403,54.936 L61.67,55.234 L60.937,55.525 L60.207,55.81 L59.477,56.087 L58.749,56.358 L58.022,56.622 L57.297,56.878 L56.573,57.128 L55.85,57.371 L55.129,57.607 L54.409,57.836 L53.69,58.058 L52.973,58.273 L52.257,58.481 L51.542,58.682 L50.829,58.877 L50.117,59.064 L49.407,59.244 L48.698,59.418 L47.99,59.584 L47.284,59.744 L46.579,59.896 L45.875,60.042 L45.173,60.181 L44.472,60.313 L43.772,60.438 L43.074,60.556 L42.377,60.667 L41.682,60.771 L40.988,60.868 L40.295,60.958 L39.603,61.041 L38.913,61.118 L38.225,61.187 L37.537,61.249 L36.851,61.305 L36.167,61.353 L35.484,61.395 L34.802,61.43 L34.121,61.458 L33.442,61.478 L32.764,61.492 L32.088,61.499 L31.413,61.499 L30.739,61.492 L30.067,61.478 L29.396,61.458 L28.726,61.43 L28.058,61.395 L27.391,61.353 L26.725,61.305 L26.061,61.249 L25.398,61.187 L24.737,61.118 L24.076,61.041 L23.418,60.958 L22.76,60.868 L22.104,60.771 L21.45,60.667 L20.796,60.556 L20.144,60.438 L19.494,60.313 L18.845,60.181 L18.197,60.042 L17.55,59.896 L16.905,59.744 L16.261,59.584 L15.619,59.418 L14.978,59.244 L14.338,59.064 L13.7,58.877 L13.063,58.682 L12.427,58.481 L11.793,58.273 L11.16,58.058 L10.528,57.836 L9.898,57.607 L9.269,57.371 L8.642,57.128 L8.016,56.878 L7.391,56.622 L6.767,56.358 L6.145,56.087 L5.525,55.81 L4.905,55.525 L4.288,55.234 L3.671,54.936 L3.056,54.63 L2.442,54.318 L1.829,53.999 L1.218,53.673 L0.608,53.34 L0,53 z" stroke-width="1" stroke-dasharray="none"/></g></g><g width="134.667" height="61.333" transform="scale(1,1) translate(0.5,7.5)"><g transform="scale(1,1) translate(0,0)" stroke="#000000" fill="#ff0000" fill-opacity="1" stroke-opacity="1"><path d="M0,52.954 L0,52.954 L0,0 L0,0 L0,0 L134.667,0 L134.667,0 L134.667,0 L134.667,52.954 L134.667,52.954 L134.667,52.954 L133.961,52.654 L133.256,52.361 L132.552,52.073 L131.847,51.791 L131.143,51.516 L130.439,51.246 L129.735,50.983 L129.032,50.726 L128.329,50.475 L127.626,50.23 L126.924,49.991 L126.221,49.759 L125.519,49.532 L124.818,49.312 L124.116,49.098 L123.415,48.89 L122.714,48.688 L122.013,48.492 L121.313,48.302 L120.613,48.118 L119.913,47.941 L119.213,47.769 L118.514,47.604 L117.815,47.445 L117.116,47.292 L116.418,47.145 L115.72,47.004 L115.022,46.869 L114.324,46.741 L113.627,46.618 L112.929,46.502 L112.233,46.392 L111.536,46.288 L110.84,46.19 L110.144,46.098 L109.448,46.012 L108.752,45.933 L108.057,45.859 L107.362,45.792 L106.668,45.731 L105.973,45.676 L105.279,45.627 L104.585,45.584 L103.892,45.547 L103.198,45.516 L102.505,45.492 L101.813,45.474 L101.12,45.461 L100.428,45.455 L99.736,45.455 L99.044,45.461 L98.353,45.474 L97.662,45.492 L96.971,45.516 L96.28,45.547 L95.59,45.584 L94.9,45.627 L94.21,45.676 L93.521,45.731 L92.831,45.792 L92.142,45.859 L91.454,45.933 L90.765,46.012 L90.077,46.098 L89.389,46.19 L88.702,46.288 L88.014,46.392 L87.327,46.502 L86.641,46.618 L85.954,46.741 L85.268,46.869 L84.582,47.004 L83.896,47.145 L83.211,47.292 L82.526,47.445 L81.841,47.604 L81.156,47.769 L80.472,47.941 L79.788,48.118 L79.104,48.302 L78.42,48.492 L77.737,48.688 L77.054,48.89 L76.372,49.098 L75.689,49.312 L75.007,49.532 L74.325,49.759 L73.644,49.991 L72.962,50.23 L72.281,50.475 L71.6,50.726 L70.92,50.983 L70.24,51.246 L69.56,51.516 L68.88,51.791 L68.2,52.073 L67.521,52.361 L66.842,52.654 L66.164,52.954 L66.164,52.954 L66.164,52.954 L65.435,53.294 L64.708,53.627 L63.983,53.954 L63.258,54.273 L62.534,54.585 L61.812,54.89 L61.091,55.189 L60.372,55.48 L59.653,55.764 L58.936,56.042 L58.22,56.312 L57.505,56.576 L56.791,56.833 L56.079,57.083 L55.368,57.325 L54.658,57.561 L53.949,57.79 L53.241,58.012 L52.535,58.227 L51.83,58.436 L51.126,58.637 L50.424,58.831 L49.722,59.018 L49.022,59.199 L48.323,59.372 L47.626,59.539 L46.929,59.698 L46.234,59.851 L45.54,59.997 L44.847,60.135 L44.155,60.267 L43.465,60.392 L42.776,60.51 L42.088,60.621 L41.401,60.725 L40.716,60.822 L40.032,60.912 L39.349,60.996 L38.667,61.072 L37.986,61.141 L37.307,61.204 L36.629,61.259 L35.952,61.308 L35.276,61.35 L34.602,61.384 L33.929,61.412 L33.257,61.433 L32.586,61.447 L31.916,61.454 L31.248,61.454 L30.581,61.447 L29.915,61.433 L29.25,61.412 L28.587,61.384 L27.925,61.35 L27.264,61.308 L26.604,61.259 L25.945,61.204 L25.288,61.141 L24.632,61.072 L23.977,60.996 L23.324,60.912 L22.671,60.822 L22.02,60.725 L21.37,60.621 L20.721,60.51 L20.074,60.392 L19.427,60.267 L18.782,60.135 L18.139,59.997 L17.496,59.851 L16.855,59.698 L16.214,59.539 L15.575,59.372 L14.938,59.199 L14.301,59.018 L13.666,58.831 L13.032,58.637 L12.399,58.436 L11.768,58.227 L11.137,58.012 L10.508,57.79 L9.88,57.561 L9.253,57.325 L8.628,57.083 L8.004,56.833 L7.381,56.576 L6.759,56.312 L6.138,56.042 L5.519,55.764 L4.901,55.48 L4.284,55.189 L3.668,54.89 L3.054,54.585 L2.441,54.273 L1.829,53.954 L1.218,53.627 L0.608,53.294 L0,52.954 L0,52.954 z" stroke-width="1" stroke-dasharray="none"/></g></g></g></g></g><g width="165.12550080140423" height="51.415736840929966" transform="scale(1,1) translate(8.76,14.96)"><text width="165.12550080140423" height="15.624999046325684" transform="scale(1,1) translate(0,17.89536889730214)" xml:space="preserve"><tspan xml:space="preserve" text-rendering="optimizeSpeed" font-size="13.88888888888889" font-weight="bold" font-style="normal" fill="#333333" opacity="1" x="13" text-anchor="start" y="12.5" textLength="139.12518310546875" style="font-family: Arial, Helvetica Neue, Helvetica, sans-serif;">TEI In HTML Wrapper</tspan></text></g></g><g width="75.336" height="0" transform="scale(1,1) translate(407.997,333.333)"><g transform="scale(1,1) translate(0,0)" fill="#545454" stroke="#545454" stroke-opacity="1" filter="url(#af7f1fd3-46eb-4063-8754-e107165e48f0)"><path d="M 0 0 L 65.336 0" fill="none" stroke-width="1" stroke-dasharray="none"/><g><g stroke-dasharray="none"><path d="M65.336,-5L75.336,0L65.336,5z" stroke="none" fill-opacity="1"/></g></g></g></g><g width="92.917" height="0" transform="scale(1,1) translate(633.333,333.333)"><g transform="scale(1,1) translate(0,0)" fill="#545454" stroke="#545454" stroke-opacity="1" filter="url(#af7f1fd3-46eb-4063-8754-e107165e48f0)"><path d="M 0 0 L 82.917 0" fill="none" stroke-width="1" stroke-dasharray="none"/><g><g stroke-dasharray="none"><path d="M82.917,-5L92.917,0L82.917,5z" stroke="none" fill-opacity="1"/></g></g></g></g><g width="150" height="75" transform="scale(1,1) translate(500,545.833)"><g stroke="#7F7F7F" opacity="1" stroke-width="1" stroke-dasharray="none" width="150" height="75" transform="scale(1,1) translate(0,0)" fill="#FF0000" fill-opacity="1" stroke-opacity="1" filter="url(#05838a69-188c-4aac-8a9d-f3f0fa79b030)"><rect width="150" height="75"/></g><g width="145" height="70" transform="scale(1,1) translate(2.5,2.5)"><text width="145" height="15.624999046325684" transform="scale(1,1) translate(0,27.187500476837158)" xml:space="preserve"><tspan xml:space="preserve" text-rendering="optimizeSpeed" font-size="13.88888888888889" font-weight="bold" font-style="normal" fill="#333333" opacity="1" x="0.11" text-anchor="start" y="12.5" textLength="144.77963256835938" style="font-family: Arial, Helvetica Neue, Helvetica, sans-serif;">TEI Boilerplate (XSLT)</tspan></text></g></g><g width="197.667" height="95.667" transform="scale(1,1) translate(726.167,535.5)"><g width="197.667" height="95.667" filter="url(#05838a69-188c-4aac-8a9d-f3f0fa79b030)"><g transform="scale(1.3726851973064313,1.3774107174197385) translate(0,0)"><g><g width="134.833" height="61.167" transform="scale(1,1) translate(8.667,0.5)"><g transform="scale(1,1) translate(0,0)" stroke="#000000" fill="#FF0000" fill-opacity="1" stroke-opacity="1"><path d="M0,53 L0,0 L134.833,0 L134.833,53 L134.135,52.7 L133.436,52.406 L132.738,52.118 L132.04,51.837 L131.342,51.561 L130.644,51.292 L129.946,51.029 L129.248,50.772 L128.551,50.521 L127.854,50.276 L127.156,50.037 L126.459,49.804 L125.762,49.578 L125.066,49.358 L124.369,49.143 L123.672,48.935 L122.976,48.733 L122.28,48.537 L121.583,48.347 L120.887,48.164 L120.192,47.986 L119.496,47.815 L118.8,47.65 L118.105,47.49 L117.41,47.337 L116.714,47.19 L116.019,47.05 L115.324,46.915 L114.63,46.786 L113.935,46.664 L113.24,46.548 L112.546,46.437 L111.852,46.333 L111.158,46.235 L110.464,46.144 L109.77,46.058 L109.076,45.978 L108.383,45.905 L107.689,45.837 L106.996,45.776 L106.303,45.721 L105.61,45.672 L104.917,45.629 L104.224,45.593 L103.532,45.562 L102.839,45.537 L102.147,45.519 L101.455,45.507 L100.763,45.501 L100.071,45.501 L99.379,45.507 L98.687,45.519 L97.996,45.537 L97.304,45.562 L96.613,45.593 L95.922,45.629 L95.231,45.672 L94.54,45.721 L93.85,45.776 L93.159,45.837 L92.469,45.905 L91.778,45.978 L91.088,46.058 L90.398,46.144 L89.708,46.235 L89.019,46.333 L88.329,46.437 L87.639,46.548 L86.95,46.664 L86.261,46.786 L85.572,46.915 L84.883,47.05 L84.194,47.19 L83.505,47.337 L82.817,47.49 L82.129,47.65 L81.44,47.815 L80.752,47.986 L80.064,48.164 L79.376,48.347 L78.689,48.537 L78.001,48.733 L77.314,48.935 L76.626,49.143 L75.939,49.358 L75.252,49.578 L74.565,49.804 L73.879,50.037 L73.192,50.276 L72.506,50.521 L71.819,50.772 L71.133,51.029 L70.447,51.292 L69.761,51.561 L69.075,51.837 L68.39,52.118 L67.704,52.406 L67.019,52.7 L66.333,53 L66.333,53 L65.603,53.333 L64.875,53.66 L64.147,53.979 L63.421,54.292 L62.695,54.598 L61.972,54.898 L61.249,55.19 L60.527,55.476 L59.807,55.755 L59.088,56.027 L58.37,56.292 L57.654,56.551 L56.938,56.802 L56.224,57.047 L55.511,57.285 L54.8,57.517 L54.089,57.741 L53.38,57.959 L52.672,58.17 L51.965,58.374 L51.26,58.571 L50.556,58.761 L49.852,58.945 L49.151,59.122 L48.45,59.292 L47.751,59.455 L47.052,59.612 L46.355,59.761 L45.66,59.904 L44.965,60.04 L44.272,60.169 L43.58,60.292 L42.889,60.407 L42.199,60.516 L41.511,60.618 L40.824,60.713 L40.138,60.802 L39.453,60.884 L38.77,60.958 L38.087,61.026 L37.406,61.088 L36.726,61.142 L36.048,61.19 L35.37,61.23 L34.694,61.264 L34.019,61.292 L33.346,61.312 L32.673,61.326 L32.002,61.332 L31.332,61.332 L30.663,61.326 L29.995,61.312 L29.329,61.292 L28.664,61.264 L28,61.23 L27.337,61.19 L26.676,61.142 L26.016,61.088 L25.357,61.026 L24.699,60.958 L24.042,60.884 L23.387,60.802 L22.733,60.713 L22.08,60.618 L21.428,60.516 L20.778,60.407 L20.129,60.292 L19.481,60.169 L18.834,60.04 L18.188,59.904 L17.544,59.761 L16.901,59.612 L16.259,59.455 L15.618,59.292 L14.979,59.122 L14.341,58.945 L13.704,58.761 L13.068,58.571 L12.433,58.374 L11.8,58.17 L11.168,57.959 L10.537,57.741 L9.908,57.517 L9.279,57.285 L8.652,57.047 L8.026,56.802 L7.401,56.551 L6.778,56.292 L6.155,56.027 L5.534,55.755 L4.915,55.476 L4.296,55.19 L3.679,54.898 L3.062,54.598 L2.448,54.292 L1.834,53.979 L1.221,53.66 L0.61,53.333 L0,53 z" stroke-width="1" stroke-dasharray="none"/></g></g><g width="135.167" height="61.333" transform="scale(1,1) translate(4.5,4)"><g transform="scale(1,1) translate(0,0)" stroke="#000000" fill="#FF0000" fill-opacity="1" stroke-opacity="1"><path d="M0,53 L0,0 L135.167,0 L135.167,53 L134.47,52.7 L133.773,52.406 L133.076,52.118 L132.38,51.837 L131.684,51.561 L130.987,51.292 L130.291,51.029 L129.595,50.772 L128.899,50.521 L128.204,50.276 L127.508,50.037 L126.813,49.804 L126.118,49.578 L125.422,49.358 L124.727,49.143 L124.033,48.935 L123.338,48.733 L122.643,48.537 L121.949,48.347 L121.254,48.164 L120.56,47.986 L119.866,47.815 L119.172,47.65 L118.479,47.49 L117.785,47.337 L117.091,47.19 L116.398,47.05 L115.705,46.915 L115.012,46.786 L114.319,46.664 L113.626,46.548 L112.933,46.437 L112.241,46.333 L111.548,46.235 L110.856,46.144 L110.164,46.058 L109.472,45.978 L108.78,45.905 L108.088,45.837 L107.397,45.776 L106.705,45.721 L106.014,45.672 L105.323,45.629 L104.632,45.593 L103.941,45.562 L103.25,45.537 L102.559,45.519 L101.869,45.507 L101.178,45.501 L100.488,45.501 L99.798,45.507 L99.108,45.519 L98.418,45.537 L97.729,45.562 L97.039,45.593 L96.35,45.629 L95.66,45.672 L94.971,45.721 L94.282,45.776 L93.593,45.837 L92.905,45.905 L92.216,45.978 L91.528,46.058 L90.839,46.144 L90.151,46.235 L89.463,46.333 L88.775,46.437 L88.087,46.548 L87.4,46.664 L86.712,46.786 L86.025,46.915 L85.337,47.05 L84.65,47.19 L83.963,47.337 L83.277,47.49 L82.59,47.65 L81.903,47.815 L81.217,47.986 L80.531,48.164 L79.844,48.347 L79.158,48.537 L78.473,48.733 L77.787,48.935 L77.101,49.143 L76.416,49.358 L75.73,49.578 L75.045,49.804 L74.36,50.037 L73.675,50.276 L72.99,50.521 L72.306,50.772 L71.621,51.029 L70.937,51.292 L70.253,51.561 L69.568,51.837 L68.884,52.118 L68.201,52.406 L67.517,52.7 L66.833,53 L66.833,53 L66.092,53.34 L65.351,53.673 L64.612,53.999 L63.875,54.318 L63.138,54.63 L62.403,54.936 L61.67,55.234 L60.937,55.525 L60.207,55.81 L59.477,56.087 L58.749,56.358 L58.022,56.622 L57.297,56.878 L56.573,57.128 L55.85,57.371 L55.129,57.607 L54.409,57.836 L53.69,58.058 L52.973,58.273 L52.257,58.481 L51.542,58.682 L50.829,58.877 L50.117,59.064 L49.407,59.244 L48.698,59.418 L47.99,59.584 L47.284,59.744 L46.579,59.896 L45.875,60.042 L45.173,60.181 L44.472,60.313 L43.772,60.438 L43.074,60.556 L42.377,60.667 L41.682,60.771 L40.988,60.868 L40.295,60.958 L39.603,61.041 L38.913,61.118 L38.225,61.187 L37.537,61.249 L36.851,61.305 L36.167,61.353 L35.484,61.395 L34.802,61.43 L34.121,61.458 L33.442,61.478 L32.764,61.492 L32.088,61.499 L31.413,61.499 L30.739,61.492 L30.067,61.478 L29.396,61.458 L28.726,61.43 L28.058,61.395 L27.391,61.353 L26.725,61.305 L26.061,61.249 L25.398,61.187 L24.737,61.118 L24.076,61.041 L23.418,60.958 L22.76,60.868 L22.104,60.771 L21.45,60.667 L20.796,60.556 L20.144,60.438 L19.494,60.313 L18.845,60.181 L18.197,60.042 L17.55,59.896 L16.905,59.744 L16.261,59.584 L15.619,59.418 L14.978,59.244 L14.338,59.064 L13.7,58.877 L13.063,58.682 L12.427,58.481 L11.793,58.273 L11.16,58.058 L10.528,57.836 L9.898,57.607 L9.269,57.371 L8.642,57.128 L8.016,56.878 L7.391,56.622 L6.767,56.358 L6.145,56.087 L5.525,55.81 L4.905,55.525 L4.288,55.234 L3.671,54.936 L3.056,54.63 L2.442,54.318 L1.829,53.999 L1.218,53.673 L0.608,53.34 L0,53 z" stroke-width="1" stroke-dasharray="none"/></g></g><g width="134.667" height="61.333" transform="scale(1,1) translate(0.5,7.5)"><g transform="scale(1,1) translate(0,0)" stroke="#000000" fill="#FF0000" fill-opacity="1" stroke-opacity="1"><path d="M0,52.954 L0,52.954 L0,0 L0,0 L0,0 L134.667,0 L134.667,0 L134.667,0 L134.667,52.954 L134.667,52.954 L134.667,52.954 L133.961,52.654 L133.256,52.361 L132.552,52.073 L131.847,51.791 L131.143,51.516 L130.439,51.246 L129.735,50.983 L129.032,50.726 L128.329,50.475 L127.626,50.23 L126.924,49.991 L126.221,49.759 L125.519,49.532 L124.818,49.312 L124.116,49.098 L123.415,48.89 L122.714,48.688 L122.013,48.492 L121.313,48.302 L120.613,48.118 L119.913,47.941 L119.213,47.769 L118.514,47.604 L117.815,47.445 L117.116,47.292 L116.418,47.145 L115.72,47.004 L115.022,46.869 L114.324,46.741 L113.627,46.618 L112.929,46.502 L112.233,46.392 L111.536,46.288 L110.84,46.19 L110.144,46.098 L109.448,46.012 L108.752,45.933 L108.057,45.859 L107.362,45.792 L106.668,45.731 L105.973,45.676 L105.279,45.627 L104.585,45.584 L103.892,45.547 L103.198,45.516 L102.505,45.492 L101.813,45.474 L101.12,45.461 L100.428,45.455 L99.736,45.455 L99.044,45.461 L98.353,45.474 L97.662,45.492 L96.971,45.516 L96.28,45.547 L95.59,45.584 L94.9,45.627 L94.21,45.676 L93.521,45.731 L92.831,45.792 L92.142,45.859 L91.454,45.933 L90.765,46.012 L90.077,46.098 L89.389,46.19 L88.702,46.288 L88.014,46.392 L87.327,46.502 L86.641,46.618 L85.954,46.741 L85.268,46.869 L84.582,47.004 L83.896,47.145 L83.211,47.292 L82.526,47.445 L81.841,47.604 L81.156,47.769 L80.472,47.941 L79.788,48.118 L79.104,48.302 L78.42,48.492 L77.737,48.688 L77.054,48.89 L76.372,49.098 L75.689,49.312 L75.007,49.532 L74.325,49.759 L73.644,49.991 L72.962,50.23 L72.281,50.475 L71.6,50.726 L70.92,50.983 L70.24,51.246 L69.56,51.516 L68.88,51.791 L68.2,52.073 L67.521,52.361 L66.842,52.654 L66.164,52.954 L66.164,52.954 L66.164,52.954 L65.435,53.294 L64.708,53.627 L63.983,53.954 L63.258,54.273 L62.534,54.585 L61.812,54.89 L61.091,55.189 L60.372,55.48 L59.653,55.764 L58.936,56.042 L58.22,56.312 L57.505,56.576 L56.791,56.833 L56.079,57.083 L55.368,57.325 L54.658,57.561 L53.949,57.79 L53.241,58.012 L52.535,58.227 L51.83,58.436 L51.126,58.637 L50.424,58.831 L49.722,59.018 L49.022,59.199 L48.323,59.372 L47.626,59.539 L46.929,59.698 L46.234,59.851 L45.54,59.997 L44.847,60.135 L44.155,60.267 L43.465,60.392 L42.776,60.51 L42.088,60.621 L41.401,60.725 L40.716,60.822 L40.032,60.912 L39.349,60.996 L38.667,61.072 L37.986,61.141 L37.307,61.204 L36.629,61.259 L35.952,61.308 L35.276,61.35 L34.602,61.384 L33.929,61.412 L33.257,61.433 L32.586,61.447 L31.916,61.454 L31.248,61.454 L30.581,61.447 L29.915,61.433 L29.25,61.412 L28.587,61.384 L27.925,61.35 L27.264,61.308 L26.604,61.259 L25.945,61.204 L25.288,61.141 L24.632,61.072 L23.977,60.996 L23.324,60.912 L22.671,60.822 L22.02,60.725 L21.37,60.621 L20.721,60.51 L20.074,60.392 L19.427,60.267 L18.782,60.135 L18.139,59.997 L17.496,59.851 L16.855,59.698 L16.214,59.539 L15.575,59.372 L14.938,59.199 L14.301,59.018 L13.666,58.831 L13.032,58.637 L12.399,58.436 L11.768,58.227 L11.137,58.012 L10.508,57.79 L9.88,57.561 L9.253,57.325 L8.628,57.083 L8.004,56.833 L7.381,56.576 L6.759,56.312 L6.138,56.042 L5.519,55.764 L4.901,55.48 L4.284,55.189 L3.668,54.89 L3.054,54.585 L2.441,54.273 L1.829,53.954 L1.218,53.627 L0.608,53.294 L0,52.954 L0,52.954 z" stroke-width="1" stroke-dasharray="none"/></g></g></g></g></g><g width="165.26555555555555" height="51.34404444444444" transform="scale(1,1) translate(8.767,14.94)"><text width="165.26555555555555" height="15.624999046325684" transform="scale(1,1) translate(0,17.85952269905938)" xml:space="preserve"><tspan xml:space="preserve" text-rendering="optimizeSpeed" font-size="13.88888888888889" font-weight="bold" font-style="normal" fill="#333333" opacity="1" x="13.07" text-anchor="start" y="12.5" textLength="139.12518310546875" style="font-family: Arial, Helvetica Neue, Helvetica, sans-serif;">TEI In HTML Wrapper</tspan></text></g></g><g width="150" height="75" transform="scale(1,1) translate(750,412.5)"><g stroke="#7F7F7F" opacity="1" stroke-width="1" stroke-dasharray="none" width="150" height="75" transform="scale(1,1) translate(0,0)" fill="#ff0000" fill-opacity="1" stroke-opacity="1" filter="url(#05838a69-188c-4aac-8a9d-f3f0fa79b030)"><rect width="150" height="75"/></g><g width="145" height="70" transform="scale(1,1) translate(2.5,2.5)"><text width="145" height="15.624999046325684" transform="scale(1,1) translate(0,27.187500476837158)" xml:space="preserve"><tspan xml:space="preserve" text-rendering="optimizeSpeed" font-size="13.88888888888889" font-weight="bold" font-style="normal" fill="#333333" opacity="1" x="21.969" text-anchor="start" y="12.5" textLength="101.06234741210938" style="font-family: Arial, Helvetica Neue, Helvetica, sans-serif;">CSS for Styling</tspan></text></g></g><g width="83.67" height="0" transform="scale(1,1) translate(416.33,583.333)"><g transform="scale(1,1) translate(0,0)" fill="#545454" stroke="#545454" stroke-opacity="1" filter="url(#af7f1fd3-46eb-4063-8754-e107165e48f0)"><path d="M 0 0 L 73.67 0" fill="none" stroke-width="1" stroke-dasharray="none"/><g><g stroke-dasharray="none"><path d="M73.67,-5L83.67,0L73.67,5z" stroke="none" fill-opacity="1"/></g></g></g></g><g width="76.167" height="0" transform="scale(1,1) translate(650,583.333)"><g transform="scale(1,1) translate(0,0)" fill="#545454" stroke="#545454" stroke-opacity="1" filter="url(#af7f1fd3-46eb-4063-8754-e107165e48f0)"><path d="M 0 0 L 66.167 0" fill="none" stroke-width="1" stroke-dasharray="none"/><g><g stroke-dasharray="none"><path d="M66.167,-5L76.167,0L66.167,5z" stroke="none" fill-opacity="1"/></g></g></g></g><g width="0" height="31.267" transform="scale(1,1) translate(825,381.233)"><g transform="scale(1,1) translate(0,0)" fill="#545454" stroke="#545454" stroke-opacity="1" filter="url(#af7f1fd3-46eb-4063-8754-e107165e48f0)"><path d="M 0 31.267 L 0 10" fill="none" stroke-width="1" stroke-dasharray="none"/><g><g stroke-dasharray="none"><path d="M-5,10L0,0L5,10z" stroke="none" fill-opacity="1"/></g></g></g></g><g width="0" height="43.833" transform="scale(1,1) translate(825,491.667)"><g transform="scale(1,1) translate(0,0)" fill="#545454" stroke="#545454" stroke-opacity="1" filter="url(#af7f1fd3-46eb-4063-8754-e107165e48f0)"><path d="M 0 0 L 0 33.833" fill="none" stroke-width="1" stroke-dasharray="none"/><g><g stroke-dasharray="none"><path d="M5,33.833L0,43.833L-5,33.833z" stroke="none" fill-opacity="1"/></g></g></g></g><g width="141.882" height="20.833" transform="scale(1,1) translate(191.451,41.667)"><g transform="scale(1,1) translate(0,0)" fill="#545454" stroke="#545454" stroke-opacity="1" filter="url(#af7f1fd3-46eb-4063-8754-e107165e48f0)"><path d="M 0 0 L 0 -25 L 141.882 -25 L 141.882 10.833" fill="none" stroke-width="1" stroke-dasharray="none"/><g><g stroke-dasharray="none"><path d="M146.882,10.833L141.882,20.833L136.882,10.833z" stroke="none" fill-opacity="1"/></g></g></g></g><g width="132.214" height="106.094" transform="scale(1,1) translate(842.227,5.286)"><g transform="scale(1,1) translate(0,0)" stroke="#7F7F7F" fill="#ff0000" fill-opacity="1" stroke-opacity="1" filter="url(#05838a69-188c-4aac-8a9d-f3f0fa79b030)"><path d="M53,0 L41.075,1.359 L36.245,2.718 L32.615,4.077 L29.619,5.436 L27.037,6.795 L24.754,8.154 L22.704,9.513 L20.841,10.872 L19.135,12.231 L17.562,13.59 L16.107,14.949 L14.755,16.308 L13.496,17.667 L12.321,19.026 L11.224,20.385 L10.198,21.744 L9.238,23.103 L8.34,24.462 L7.5,25.821 L6.715,27.179 L5.983,28.538 L5.3,29.897 L4.666,31.256 L4.077,32.615 L3.533,33.974 L3.031,35.333 L2.571,36.692 L2.152,38.051 L1.772,39.41 L1.431,40.769 L1.127,42.128 L0.861,43.487 L0.631,44.846 L0.437,46.205 L0.28,47.564 L0.157,48.923 L0.07,50.282 L0.017,51.641 L0,53 L0,53.094 L0.017,54.453 L0.07,55.812 L0.157,57.171 L0.28,58.53 L0.437,59.889 L0.631,61.248 L0.861,62.607 L1.127,63.966 L1.431,65.325 L1.772,66.683 L2.152,68.042 L2.571,69.401 L3.031,70.76 L3.533,72.119 L4.077,73.478 L4.666,74.837 L5.3,76.196 L5.983,77.555 L6.715,78.914 L7.5,80.273 L8.34,81.632 L9.238,82.991 L10.198,84.35 L11.224,85.709 L12.321,87.068 L13.496,88.427 L14.755,89.786 L16.107,91.145 L17.562,92.504 L19.135,93.863 L20.841,95.222 L22.704,96.581 L24.754,97.94 L27.037,99.299 L29.619,100.658 L32.615,102.017 L36.245,103.376 L41.075,104.735 L53,106.094 L79.214,106.094 L91.138,104.735 L95.968,103.376 L99.598,102.017 L102.594,100.658 L105.177,99.299 L107.459,97.94 L109.51,96.581 L111.373,95.222 L113.079,93.863 L114.651,92.504 L116.107,91.145 L117.458,89.786 L118.717,88.427 L119.892,87.068 L120.99,85.709 L122.016,84.35 L122.976,82.991 L123.874,81.632 L124.714,80.273 L125.499,78.914 L126.231,77.555 L126.913,76.196 L127.548,74.837 L128.137,73.478 L128.681,72.119 L129.182,70.76 L129.642,69.401 L130.062,68.042 L130.442,66.683 L130.783,65.325 L131.086,63.966 L131.353,62.607 L131.583,61.248 L131.776,59.889 L131.934,58.53 L132.056,57.171 L132.144,55.812 L132.196,54.453 L132.214,53.094 L132.214,53 L132.196,51.641 L132.144,50.282 L132.056,48.923 L131.934,47.564 L131.776,46.205 L131.583,44.846 L131.353,43.487 L131.086,42.128 L130.783,40.769 L130.442,39.41 L130.062,38.051 L129.642,36.692 L129.182,35.333 L128.681,33.974 L128.137,32.615 L127.548,31.256 L126.913,29.897 L126.231,28.538 L125.499,27.179 L124.714,25.821 L123.874,24.462 L122.976,23.103 L122.016,21.744 L120.99,20.385 L119.892,19.026 L118.717,17.667 L117.458,16.308 L116.107,14.949 L114.651,13.59 L113.079,12.231 L111.373,10.872 L109.51,9.513 L107.459,8.154 L105.177,6.795 L102.594,5.436 L99.598,4.077 L95.968,2.718 L91.138,1.359 L79.214,0 L53,0 z" stroke-width="1" stroke-dasharray="none"/></g><g width="88.78198022655448" height="70.31249570846559" transform="scale(1,1) translate(21.716,17.891)"><text width="88.78198022655448" height="62.499996185302734" transform="scale(1,1) translate(0,3.906249761581428)" xml:space="preserve"><tspan xml:space="preserve" text-rendering="optimizeSpeed" font-size="13.88888888888889" font-weight="bold" font-style="normal" fill="#333333" opacity="1" x="12.369" text-anchor="start" y="12.5" textLength="60.18585968017578" style="font-family: Arial, Helvetica Neue, Helvetica, sans-serif;">Files and</tspan><tspan xml:space="preserve" text-rendering="optimizeSpeed" font-size="13.88888888888889" font-weight="bold" font-style="normal" fill="#333333" opacity="1" x="8.111" text-anchor="start" y="28.125" textLength="68.70154571533203" style="font-family: Arial, Helvetica Neue, Helvetica, sans-serif;">processes</tspan><tspan xml:space="preserve" text-rendering="optimizeSpeed" font-size="13.88888888888889" font-weight="bold" font-style="normal" fill="#333333" opacity="1" x="0.03" text-anchor="start" y="43.75" textLength="84.86494445800781" style="font-family: Arial, Helvetica Neue, Helvetica, sans-serif;">used in  final</tspan><tspan xml:space="preserve" text-rendering="optimizeSpeed" font-size="13.88888888888889" font-weight="bold" font-style="normal" fill="#333333" opacity="1" x="18.552" text-anchor="start" y="59.375" textLength="51.67698669433594" style="font-family: Arial, Helvetica Neue, Helvetica, sans-serif;">product</tspan></text></g></g><g width="140.279" height="112.683" transform="scale(1,1) translate(696.527,1.992)"><g transform="scale(1,1) translate(0,0)" stroke="#7F7F7F" fill="#B7DDE8" fill-opacity="1" stroke-opacity="1" filter="url(#05838a69-188c-4aac-8a9d-f3f0fa79b030)"><path d="M56,0 L43.4,1.436 L38.297,2.872 L34.462,4.308 L31.296,5.744 L28.567,7.179 L26.155,8.615 L23.989,10.051 L22.02,11.487 L20.218,12.923 L18.556,14.359 L17.019,15.795 L15.59,17.231 L14.26,18.667 L13.019,20.103 L11.859,21.538 L10.775,22.974 L9.761,24.41 L8.812,25.846 L7.924,27.282 L7.095,28.718 L6.321,30.154 L5.6,31.59 L4.93,33.026 L4.308,34.462 L3.733,35.897 L3.203,37.333 L2.717,38.769 L2.274,40.205 L1.872,41.641 L1.512,43.077 L1.191,44.513 L0.909,45.949 L0.667,47.385 L0.462,48.821 L0.295,50.256 L0.166,51.692 L0.074,53.128 L0.018,54.564 L0,56 L0,56.683 L0.018,58.119 L0.074,59.555 L0.166,60.991 L0.295,62.427 L0.462,63.863 L0.667,65.299 L0.909,66.735 L1.191,68.171 L1.512,69.607 L1.872,71.042 L2.274,72.478 L2.717,73.914 L3.203,75.35 L3.733,76.786 L4.308,78.222 L4.93,79.658 L5.6,81.094 L6.321,82.53 L7.095,83.965 L7.924,85.401 L8.812,86.837 L9.761,88.273 L10.775,89.709 L11.859,91.145 L13.019,92.581 L14.26,94.017 L15.59,95.453 L17.019,96.889 L18.556,98.324 L20.218,99.76 L22.02,101.196 L23.989,102.632 L26.155,104.068 L28.567,105.504 L31.296,106.94 L34.462,108.376 L38.297,109.812 L43.4,111.248 L56,112.683 L84.279,112.683 L96.879,111.248 L101.982,109.812 L105.818,108.376 L108.983,106.94 L111.712,105.504 L114.124,104.068 L116.291,102.632 L118.259,101.196 L120.062,99.76 L121.723,98.324 L123.261,96.889 L124.689,95.453 L126.019,94.017 L127.26,92.581 L128.42,91.145 L129.504,89.709 L130.519,88.273 L131.468,86.837 L132.355,85.401 L133.184,83.965 L133.958,82.53 L134.679,81.094 L135.35,79.658 L135.972,78.222 L136.547,76.786 L137.077,75.35 L137.563,73.914 L138.006,72.478 L138.407,71.042 L138.768,69.607 L139.089,68.171 L139.37,66.735 L139.613,65.299 L139.817,63.863 L139.984,62.427 L140.113,60.991 L140.206,59.555 L140.261,58.119 L140.279,56.683 L140.279,56 L140.261,54.564 L140.206,53.128 L140.113,51.692 L139.984,50.256 L139.817,48.821 L139.613,47.385 L139.37,45.949 L139.089,44.513 L138.768,43.077 L138.407,41.641 L138.006,40.205 L137.563,38.769 L137.077,37.333 L136.547,35.897 L135.972,34.462 L135.35,33.026 L134.679,31.59 L133.958,30.154 L133.184,28.718 L132.355,27.282 L131.468,25.846 L130.519,24.41 L129.504,22.974 L128.42,21.538 L127.26,20.103 L126.019,18.667 L124.689,17.231 L123.261,15.795 L121.723,14.359 L120.062,12.923 L118.259,11.487 L116.291,10.051 L114.124,8.615 L111.712,7.179 L108.983,5.744 L105.818,4.308 L101.982,2.872 L96.879,1.436 L84.279,0 L56,0 z" stroke-width="1" stroke-dasharray="none"/></g><g width="94.48539580824595" height="74.97211661016479" transform="scale(1,1) translate(22.897,18.856)"><text width="94.48539580824595" height="62.499996185302734" transform="scale(1,1) translate(0,6.236060212431028)" xml:space="preserve"><tspan xml:space="preserve" text-rendering="optimizeSpeed" font-size="13.88888888888889" font-weight="bold" font-style="normal" fill="#333333" opacity="1" x="15.221" text-anchor="start" y="12.5" textLength="60.18585968017578" style="font-family: Arial, Helvetica Neue, Helvetica, sans-serif;">Files and</tspan><tspan xml:space="preserve" text-rendering="optimizeSpeed" font-size="13.88888888888889" font-weight="bold" font-style="normal" fill="#333333" opacity="1" x="10.963" text-anchor="start" y="28.125" textLength="68.70154571533203" style="font-family: Arial, Helvetica Neue, Helvetica, sans-serif;">processes</tspan><tspan xml:space="preserve" text-rendering="optimizeSpeed" font-size="13.88888888888889" font-weight="bold" font-style="normal" fill="#333333" opacity="1" x="0" text-anchor="start" y="43.75" textLength="94.14674377441406" style="font-family: Arial, Helvetica Neue, Helvetica, sans-serif;">used to create</tspan><tspan xml:space="preserve" text-rendering="optimizeSpeed" font-size="13.88888888888889" font-weight="bold" font-style="normal" fill="#333333" opacity="1" x="5.203" text-anchor="start" y="59.375" textLength="84.07844543457031" style="font-family: Arial, Helvetica Neue, Helvetica, sans-serif;">final product</tspan></text></g></g><g width="132.167" height="106.11" transform="scale(1,1) translate(550.583,5.278)"><g transform="scale(1,1) translate(0,0)" stroke="#7F7F7F" fill="#ffc000" fill-opacity="1" stroke-opacity="1" filter="url(#05838a69-188c-4aac-8a9d-f3f0fa79b030)"><path d="M53,0 L41.075,1.359 L36.245,2.718 L32.615,4.077 L29.619,5.436 L27.037,6.795 L24.754,8.154 L22.704,9.513 L20.841,10.872 L19.135,12.231 L17.562,13.59 L16.107,14.949 L14.755,16.308 L13.496,17.667 L12.321,19.026 L11.224,20.385 L10.198,21.744 L9.238,23.103 L8.34,24.462 L7.5,25.821 L6.715,27.179 L5.983,28.538 L5.3,29.897 L4.666,31.256 L4.077,32.615 L3.533,33.974 L3.031,35.333 L2.571,36.692 L2.152,38.051 L1.772,39.41 L1.431,40.769 L1.127,42.128 L0.861,43.487 L0.631,44.846 L0.437,46.205 L0.28,47.564 L0.157,48.923 L0.07,50.282 L0.017,51.641 L0,53 L0,53.11 L0.017,54.469 L0.07,55.828 L0.157,57.187 L0.28,58.546 L0.437,59.905 L0.631,61.264 L0.861,62.623 L1.127,63.982 L1.431,65.341 L1.772,66.7 L2.152,68.059 L2.571,69.418 L3.031,70.777 L3.533,72.136 L4.077,73.495 L4.666,74.854 L5.3,76.213 L5.983,77.572 L6.715,78.931 L7.5,80.29 L8.34,81.649 L9.238,83.007 L10.198,84.366 L11.224,85.725 L12.321,87.084 L13.496,88.443 L14.755,89.802 L16.107,91.161 L17.562,92.52 L19.135,93.879 L20.841,95.238 L22.704,96.597 L24.754,97.956 L27.037,99.315 L29.619,100.674 L32.615,102.033 L36.245,103.392 L41.075,104.751 L53,106.11 L79.167,106.11 L91.092,104.751 L95.921,103.392 L99.551,102.033 L102.547,100.674 L105.13,99.315 L107.412,97.956 L109.463,96.597 L111.326,95.238 L113.032,93.879 L114.604,92.52 L116.06,91.161 L117.412,89.802 L118.671,88.443 L119.845,87.084 L120.943,85.725 L121.969,84.366 L122.929,83.007 L123.827,81.649 L124.667,80.29 L125.452,78.931 L126.184,77.572 L126.866,76.213 L127.501,74.854 L128.09,73.495 L128.634,72.136 L129.136,70.777 L129.595,69.418 L130.015,68.059 L130.395,66.7 L130.736,65.341 L131.04,63.982 L131.306,62.623 L131.536,61.264 L131.729,59.905 L131.887,58.546 L132.01,57.187 L132.097,55.828 L132.149,54.469 L132.167,53.11 L132.167,53 L132.149,51.641 L132.097,50.282 L132.01,48.923 L131.887,47.564 L131.729,46.205 L131.536,44.846 L131.306,43.487 L131.04,42.128 L130.736,40.769 L130.395,39.41 L130.015,38.051 L129.595,36.692 L129.136,35.333 L128.634,33.974 L128.09,32.615 L127.501,31.256 L126.866,29.897 L126.184,28.538 L125.452,27.179 L124.667,25.821 L123.827,24.462 L122.929,23.103 L121.969,21.744 L120.943,20.385 L119.845,19.026 L118.671,17.667 L117.412,16.308 L116.06,14.949 L114.604,13.59 L113.032,12.231 L111.326,10.872 L109.463,9.513 L107.412,8.154 L105.13,6.795 L102.547,5.436 L99.551,4.077 L95.921,2.718 L91.092,1.359 L79.167,0 L53,0 z" stroke-width="1" stroke-dasharray="none"/></g><g width="88.74883957233332" height="70.32403304641963" transform="scale(1,1) translate(21.709,17.893)"><text width="88.74883957233332" height="46.87499713897705" transform="scale(1,1) translate(0,11.72451795372129)" xml:space="preserve"><tspan xml:space="preserve" text-rendering="optimizeSpeed" font-size="13.88888888888889" font-weight="bold" font-style="normal" fill="#333333" opacity="1" x="0" text-anchor="start" y="12.5" textLength="84.89887237548828" style="font-family: Arial, Helvetica Neue, Helvetica, sans-serif;">Files created</tspan><tspan xml:space="preserve" text-rendering="optimizeSpeed" font-size="13.88888888888889" font-weight="bold" font-style="normal" fill="#333333" opacity="1" x="3.878" text-anchor="start" y="28.125" textLength="77.13579559326172" style="font-family: Arial, Helvetica Neue, Helvetica, sans-serif;">prior to this</tspan><tspan xml:space="preserve" text-rendering="optimizeSpeed" font-size="13.88888888888889" font-weight="bold" font-style="normal" fill="#333333" opacity="1" x="21.228" text-anchor="start" y="43.75" textLength="46.293670654296875" style="font-family: Arial, Helvetica Neue, Helvetica, sans-serif;">project</tspan></text></g></g></g></svg>